<svg viewBox="0 0 512 512" fill="currentColor" >
<path d="M498.196 222.695C498.184 222.684 498.172 222.672 498.161 222.66L289.305 13.8125C280.403 4.90625 268.567 0 255.977 0C243.387 0 231.551 4.90234 222.645 13.8086L13.899 222.551C13.8287 222.621 13.7583 222.695 13.688 222.766C-4.59322 241.152 -4.56197 270.984 13.7779 289.324C22.1568 297.707 33.2232 302.562 45.0552 303.07C45.5357 303.117 46.0201 303.141 46.5083 303.141H54.8326V456.84C54.8326 487.254 79.5787 512 110.001 512H191.711C199.993 512 206.711 505.285 206.711 497V376.5C206.711 362.621 218.001 351.332 231.879 351.332H280.075C293.954 351.332 305.243 362.621 305.243 376.5V497C305.243 505.285 311.958 512 320.243 512H401.954C432.376 512 457.122 487.254 457.122 456.84V303.141H464.84C477.426 303.141 489.262 298.238 498.172 289.332C516.532 270.961 516.54 241.078 498.196 222.695Z" />
</svg>
