<svg fill="currentColor" viewBox="0 0 1771 594">
<g filter="url(#filter0_d)">
<rect x="3" width="1763" height="586" rx="293"/>
</g>
<path d="M935.325 377H920.37V292.817H820.026V377H805.191V201.398H820.026V280.274H920.37V201.398H935.325V377ZM968.732 309.823C968.732 297.28 971.145 285.983 975.969 275.933C980.873 265.882 987.748 258.083 996.592 252.535C1005.52 246.907 1015.61 244.093 1026.86 244.093C1044.23 244.093 1058.3 250.203 1069.08 262.425C1079.85 274.566 1085.24 290.687 1085.24 310.788V313.803C1085.24 326.426 1082.78 337.803 1077.88 347.934C1073.06 357.985 1066.22 365.743 1057.38 371.211C1048.53 376.678 1038.44 379.412 1027.11 379.412C1009.82 379.412 995.748 373.342 984.894 361.201C974.119 348.979 968.732 332.818 968.732 312.717V309.823ZM983.205 313.803C983.205 329.401 987.225 342.225 995.266 352.276C1003.39 362.246 1014 367.231 1027.11 367.231C1040.13 367.231 1050.66 362.246 1058.7 352.276C1066.82 342.225 1070.89 328.999 1070.89 312.597V309.823C1070.89 299.853 1069.04 290.727 1065.34 282.445C1061.64 274.164 1056.45 267.772 1049.78 263.269C1043.11 258.686 1035.47 256.395 1026.86 256.395C1014 256.395 1003.51 261.46 995.386 271.591C987.265 281.641 983.205 294.827 983.205 311.149V313.803ZM1128.29 246.505L1128.78 267.731C1133.6 259.852 1139.63 253.942 1146.87 250.002C1154.1 246.063 1162.14 244.093 1170.99 244.093C1191.57 244.093 1204.64 252.535 1210.18 269.42C1214.85 261.299 1221.08 255.068 1228.88 250.726C1236.68 246.304 1245.28 244.093 1254.69 244.093C1282.67 244.093 1296.94 259.369 1297.5 289.923V377H1283.03V291.008C1282.95 279.35 1280.42 270.706 1275.43 265.078C1270.53 259.45 1262.49 256.636 1251.31 256.636C1240.94 256.797 1232.17 260.174 1225.02 266.767C1217.86 273.279 1213.88 281.239 1213.08 290.646V377H1198.61V289.923C1198.53 278.747 1195.87 270.425 1190.65 264.958C1185.5 259.41 1177.54 256.636 1166.77 256.636C1157.68 256.636 1149.88 259.249 1143.37 264.475C1136.86 269.621 1132.03 277.299 1128.9 287.511V377H1114.42V246.505H1128.29ZM1384.7 379.412C1373.6 379.412 1363.55 376.678 1354.55 371.211C1345.62 365.743 1338.67 358.145 1333.68 348.417C1328.7 338.607 1326.21 327.632 1326.21 315.491V310.305C1326.21 297.762 1328.62 286.465 1333.44 276.415C1338.35 266.365 1345.14 258.485 1353.83 252.776C1362.51 246.987 1371.92 244.093 1382.05 244.093C1397.89 244.093 1410.43 249.52 1419.68 260.375C1429 271.149 1433.67 285.903 1433.67 304.637V312.717H1340.56V315.491C1340.56 330.285 1344.78 342.627 1353.22 352.517C1361.75 362.326 1372.44 367.231 1385.3 367.231C1393.02 367.231 1399.82 365.824 1405.69 363.01C1411.64 360.196 1417.02 355.693 1421.85 349.502L1430.89 356.376C1420.28 371.734 1404.88 379.412 1384.7 379.412ZM1382.05 256.395C1371.19 256.395 1362.03 260.375 1354.55 268.334C1347.15 276.294 1342.65 286.988 1341.04 300.416H1419.31V298.848C1418.91 286.305 1415.33 276.093 1408.58 268.214C1401.83 260.334 1392.98 256.395 1382.05 256.395Z" fill="#204F6E"/>
<path d="M713.255 266.998C713.246 266.989 713.237 266.98 713.228 266.971L550.043 103.792C543.087 96.8334 533.839 93 524.002 93C514.166 93 504.918 96.8303 497.959 103.789L334.86 266.886C334.805 266.94 334.75 266.998 334.695 267.053C320.411 281.419 320.436 304.728 334.765 319.058C341.312 325.607 349.958 329.401 359.203 329.798C359.578 329.834 359.957 329.853 360.338 329.853H366.842V449.943C366.842 473.706 386.177 493.041 409.947 493.041H473.79C480.26 493.041 485.51 487.794 485.51 481.321V387.171C485.51 376.327 494.33 367.506 505.174 367.506H542.831C553.675 367.506 562.495 376.327 562.495 387.171V481.321C562.495 487.794 567.742 493.041 574.215 493.041H638.058C661.828 493.041 681.163 473.706 681.163 449.943V329.853H687.194C697.027 329.853 706.275 326.022 713.237 319.064C727.582 304.71 727.588 281.361 713.255 266.998Z" fill="#204F6E"/>
<defs>
<filter id="filter0_d" x="0" y="0" width="1771" height="594" filterUnits="userSpaceOnUse" color-interpolation-filters="sRGB">
<feFlood flood-opacity="0" result="BackgroundImageFix"/>
<feColorMatrix in="SourceAlpha" type="matrix" values="0 0 0 0 0 0 0 0 0 0 0 0 0 0 0 0 0 0 127 0"/>
<feOffset dx="1" dy="4"/>
<feGaussianBlur stdDeviation="2"/>
<feColorMatrix type="matrix" values="0 0 0 0 0 0 0 0 0 0 0 0 0 0 0 0 0 0 0.25 0"/>
<feBlend mode="normal" in2="BackgroundImageFix" result="effect1_dropShadow"/>
<feBlend mode="normal" in="SourceGraphic" in2="effect1_dropShadow" result="shape"/>
</filter>
</defs>
</svg>
