<svg width="51" height="51" viewBox="0 0 51 51" fill="none" xmlns="http://www.w3.org/2000/svg">
<g clip-path="url(#clip0)">
<path d="M26.1221 4.32202L1.07249 29.5783C0.219325 30.4314 0.219325 31.8153 1.07249 32.6694L18.7634 50.3603C19.6166 51.2135 21.0005 51.2135 21.8546 50.3603L46.2455 25.3098V4.32202H26.1221ZM37.6015 16.4237C35.692 16.4237 34.1438 14.8756 34.1438 12.9661C34.1438 11.0566 35.692 9.50846 37.6015 9.50846C39.5109 9.50846 41.0591 11.0566 41.0591 12.9661C41.0591 14.8756 39.5109 16.4237 37.6015 16.4237Z" fill="#FFB332"/>
<path d="M37.6018 6.05084C33.7828 6.05084 30.6865 9.14715 30.6865 12.9661C30.6865 16.785 33.7828 19.8813 37.6018 19.8813C41.4207 19.8813 44.517 16.785 44.517 12.9661C44.517 9.14715 41.4207 6.05084 37.6018 6.05084ZM37.6018 16.4237C35.6923 16.4237 34.1442 14.8756 34.1442 12.9661C34.1442 11.0566 35.6923 9.50847 37.6018 9.50847C39.5113 9.50847 41.0594 11.0566 41.0594 12.9661C41.0594 14.8756 39.5113 16.4237 37.6018 16.4237Z" fill="#28685C"/>
<path d="M37.6019 13.8305C37.3806 13.8305 37.1594 13.7458 36.9908 13.5772C36.6528 13.2392 36.6528 12.6929 36.9908 12.3549L49.0925 0.253243C49.4305 -0.0847399 49.9768 -0.0847399 50.3148 0.253243C50.6527 0.591226 50.6527 1.13753 50.3148 1.47551L38.2131 13.5772C38.0445 13.7458 37.8232 13.8305 37.6019 13.8305Z" fill="#FDD7AD"/>
<path d="M19.4917 38.3788C17.788 38.3788 16.1534 37.7072 14.938 36.4918C12.4269 33.9807 12.4269 29.8938 14.938 27.3827C15.276 27.0447 15.8223 27.0447 16.1603 27.3827C16.4983 27.7207 16.4983 28.267 16.1603 28.6049C14.3234 30.4427 14.3234 33.4318 16.1603 35.2695C17.1431 36.2524 18.5028 36.7503 19.8876 36.6336C20.5843 36.5756 21.2179 36.2351 21.6709 35.6767C22.1489 35.0863 22.3693 34.3161 22.2751 33.5615L21.1289 24.3944C20.9768 23.1747 21.332 21.9283 22.1057 20.9748C22.8586 20.0473 23.9175 19.482 25.0879 19.3852C26.9835 19.2287 28.8377 19.9064 30.181 21.2488C32.6921 23.76 32.6921 27.8469 30.181 30.358C29.843 30.6959 29.2967 30.6959 28.9587 30.358C28.6207 30.02 28.6207 29.4737 28.9587 29.1357C30.7956 27.298 30.7956 24.3088 28.9587 22.4711C27.9759 21.4892 26.6222 20.9895 25.2314 21.1071C24.5347 21.165 23.901 21.5056 23.4481 22.064C22.9701 22.6535 22.7497 23.4246 22.8439 24.1792L23.9901 33.3462C24.1422 34.565 23.7861 35.8124 23.0133 36.765C22.2604 37.6933 21.2015 38.2586 20.0311 38.3555C19.8513 38.3719 19.6715 38.3788 19.4917 38.3788Z" fill="white"/>
<path d="M14.2914 38.0062C14.0701 38.0062 13.8488 37.9215 13.6802 37.753C13.3423 37.415 13.3423 36.8687 13.6802 36.5307L29.9467 20.2643C30.2846 19.9263 30.8309 19.9263 31.1689 20.2643C31.5069 20.6023 31.5069 21.1486 31.1689 21.4866L14.9025 37.753C14.7331 37.9215 14.5127 38.0062 14.2914 38.0062Z" fill="white"/>
</g>
<defs>
<clipPath id="clip0">
<rect width="51" height="51" fill="white"/>
</clipPath>
</defs>
</svg>
