<svg width="70" height="70" viewBox="0 0 70 70" fill="none" xmlns="http://www.w3.org/2000/svg">
<path d="M24.5831 54.8799L14.1399 60.5763C13.5271 60.9105 12.9763 61.3212 12.4639 61.769C18.5525 66.9027 26.4124 69.9999 34.9999 69.9999C43.5241 69.9999 51.3337 66.949 57.4052 61.8852C56.8452 61.4124 56.2376 60.9871 55.5641 60.6516L44.3812 55.0608C42.9363 54.3384 42.0237 52.8618 42.0237 51.2465V46.859C42.338 46.501 42.6973 46.0414 43.0816 45.4986C44.6058 43.3458 45.7588 40.9776 46.5578 38.4933C47.9922 38.0508 49.0488 36.7261 49.0488 35.1518V30.4684C49.0488 29.4382 48.5905 28.5176 47.8786 27.8731V21.1029C47.8786 21.1029 49.2693 10.5673 35.0012 10.5673C20.7331 10.5673 22.1239 21.1029 22.1239 21.1029V27.8731C21.4107 28.5176 20.9537 29.4382 20.9537 30.4684V35.1518C20.9537 36.3854 21.6022 37.471 22.5729 38.0984C23.7431 43.1925 26.8073 46.859 26.8073 46.859V51.1382C26.8059 52.6967 25.9527 54.1324 24.5831 54.8799Z" fill="#E7ECED"/>
<path d="M35.5982 0.00521191C16.2716 -0.324977 0.335404 15.075 0.00521536 34.4016C-0.182332 45.3599 4.70182 55.2088 12.4784 61.7584C12.9869 61.3146 13.5324 60.9079 14.1386 60.5777L24.5818 54.8813C25.9514 54.1337 26.8047 52.698 26.8047 51.1369V46.8577C26.8047 46.8577 23.7392 43.1913 22.5703 38.0971C21.6009 37.4697 20.9511 36.3854 20.9511 35.1505V30.4671C20.9511 29.4369 21.4094 28.5163 22.1213 27.8718V21.1016C22.1213 21.1016 20.7305 10.566 34.9986 10.566C49.2667 10.566 47.876 21.1016 47.876 21.1016V27.8718C48.5892 28.5163 49.0462 29.4369 49.0462 30.4671V35.1505C49.0462 36.7248 47.9896 38.0496 46.5552 38.492C45.7562 40.9763 44.6031 43.3445 43.079 45.4973C42.6947 46.0401 42.3354 46.4997 42.0211 46.8577V51.2452C42.0211 52.8605 42.9337 54.3384 44.3786 55.0596L55.5614 60.6503C56.2324 60.9858 56.8386 61.4097 57.3973 61.8813C64.9388 55.5918 69.8111 46.188 69.992 35.5982C70.3248 16.2716 54.9262 0.335401 35.5982 0.00521191Z" fill="#556080"/>
</svg>
