<svg fill="currentColor" viewBox="0 0 1771 594">
<g filter="url(#filter0_d)">
<rect x="3" width="1763" height="586" rx="293"/>
</g>
<path d="M945.57 333.823C945.57 324.094 942.153 316.416 935.319 310.788C928.485 305.079 915.982 299.692 897.811 294.626C879.639 289.481 866.373 283.893 858.011 277.862C846.111 269.34 840.161 258.163 840.161 244.334C840.161 230.907 845.669 220.012 856.684 211.65C867.78 203.208 881.931 198.986 899.137 198.986C910.796 198.986 921.208 201.238 930.374 205.74C939.62 210.243 946.776 216.514 951.842 224.555C956.907 232.595 959.44 241.56 959.44 251.45H944.485C944.485 239.47 940.384 229.861 932.183 222.625C923.982 215.308 912.967 211.65 899.137 211.65C885.71 211.65 875.016 214.665 867.056 220.695C859.096 226.645 855.116 234.444 855.116 244.093C855.116 253.018 858.694 260.294 865.85 265.922C873.006 271.551 884.464 276.536 900.223 280.877C915.982 285.139 927.922 289.601 936.042 294.265C944.163 298.848 950.274 304.355 954.375 310.788C958.475 317.22 960.525 324.818 960.525 333.582C960.525 347.411 954.978 358.507 943.882 366.869C932.867 375.231 918.313 379.412 900.223 379.412C887.84 379.412 876.463 377.201 866.091 372.779C855.8 368.357 847.96 362.166 842.573 354.206C837.267 346.246 834.613 337.12 834.613 326.828H849.448C849.448 339.21 854.071 348.979 863.317 356.135C872.564 363.291 884.866 366.869 900.223 366.869C913.891 366.869 924.866 363.854 933.148 357.824C941.43 351.793 945.57 343.793 945.57 333.823ZM1011.66 213.097V246.505H1038.68V258.324H1011.66V345.281C1011.66 352.517 1012.95 357.904 1015.52 361.442C1018.17 364.98 1022.56 366.749 1028.67 366.749C1031.08 366.749 1034.98 366.347 1040.37 365.542L1040.97 377.362C1037.19 378.729 1032.04 379.412 1025.53 379.412C1015.64 379.412 1008.45 376.558 1003.94 370.849C999.441 365.06 997.189 356.577 997.189 345.401V258.324H973.189V246.505H997.189V213.097H1011.66ZM1150.96 377C1149.51 372.899 1148.59 366.829 1148.19 358.789C1143.12 365.382 1136.65 370.487 1128.77 374.105C1120.97 377.643 1112.69 379.412 1103.93 379.412C1091.38 379.412 1081.21 375.915 1073.41 368.919C1065.69 361.924 1061.83 353.08 1061.83 342.386C1061.83 329.682 1067.1 319.632 1077.63 312.235C1088.25 304.838 1103 301.139 1121.9 301.139H1148.07V286.305C1148.07 276.978 1145.17 269.661 1139.38 264.354C1133.67 258.967 1125.31 256.274 1114.3 256.274C1104.25 256.274 1095.93 258.847 1089.33 263.993C1082.74 269.139 1079.44 275.33 1079.44 282.566L1064.97 282.445C1064.97 272.073 1069.79 263.108 1079.44 255.55C1089.09 247.912 1100.95 244.093 1115.02 244.093C1129.57 244.093 1141.03 247.751 1149.39 255.068C1157.84 262.304 1162.18 272.435 1162.42 285.46V347.21C1162.42 359.834 1163.75 369.281 1166.4 375.553V377H1150.96ZM1105.61 366.628C1115.26 366.628 1123.87 364.296 1131.42 359.633C1139.06 354.969 1144.61 348.738 1148.07 340.939V312.235H1122.26C1107.87 312.396 1096.61 315.049 1088.49 320.195C1080.37 325.26 1076.31 332.255 1076.31 341.18C1076.31 348.497 1079 354.567 1084.39 359.392C1089.85 364.216 1096.93 366.628 1105.61 366.628ZM1223.45 213.097V246.505H1250.46V258.324H1223.45V345.281C1223.45 352.517 1224.73 357.904 1227.3 361.442C1229.96 364.98 1234.34 366.749 1240.45 366.749C1242.86 366.749 1246.76 366.347 1252.15 365.542L1252.75 377.362C1248.97 378.729 1243.83 379.412 1237.31 379.412C1227.43 379.412 1220.23 376.558 1215.73 370.849C1211.22 365.06 1208.97 356.577 1208.97 345.401V258.324H1184.97V246.505H1208.97V213.097H1223.45ZM1358.52 343.833C1358.52 336.678 1355.63 330.929 1349.84 326.587C1344.13 322.245 1335.49 318.868 1323.91 316.456C1312.33 313.964 1303.33 311.149 1296.89 308.014C1290.54 304.798 1285.8 300.898 1282.66 296.315C1279.61 291.732 1278.08 286.184 1278.08 279.671C1278.08 269.38 1282.38 260.897 1290.98 254.224C1299.59 247.47 1310.6 244.093 1324.03 244.093C1338.58 244.093 1350.24 247.711 1359.01 254.947C1367.85 262.103 1372.27 271.47 1372.27 283.048H1357.8C1357.8 275.41 1354.58 269.058 1348.15 263.993C1341.8 258.927 1333.76 256.395 1324.03 256.395C1314.54 256.395 1306.9 258.525 1301.12 262.787C1295.41 266.968 1292.55 272.435 1292.55 279.189C1292.55 285.702 1294.92 290.767 1299.67 294.385C1304.49 297.923 1313.22 301.179 1325.84 304.154C1338.54 307.129 1348.03 310.305 1354.3 313.682C1360.65 317.059 1365.36 321.119 1368.41 325.863C1371.47 330.607 1373 336.356 1373 343.11C1373 354.125 1368.53 362.929 1359.61 369.522C1350.76 376.116 1339.19 379.412 1324.87 379.412C1309.68 379.412 1297.34 375.754 1287.85 368.437C1278.44 361.04 1273.74 351.713 1273.74 340.457H1288.21C1288.77 348.899 1292.31 355.492 1298.82 360.236C1305.42 364.899 1314.1 367.231 1324.87 367.231C1334.92 367.231 1343.05 365.02 1349.24 360.598C1355.43 356.175 1358.52 350.587 1358.52 343.833Z" fill="#204F6E"/>
<path d="M569.5 305.5V141.438H557.781C460.85 141.438 382 220.287 382 317.219C382 414.15 460.85 493 557.781 493C654.712 493 733.562 414.15 733.562 317.219V305.5H569.5Z" fill="#204F6E"/>
<path d="M606.219 93H594.5V280.5H782V268.781C782 171.85 703.15 93 606.219 93Z" fill="#204F6E"/>
<defs>
<filter id="filter0_d" x="0" y="0" width="1771" height="594" filterUnits="userSpaceOnUse" color-interpolation-filters="sRGB">
<feFlood flood-opacity="0" result="BackgroundImageFix"/>
<feColorMatrix in="SourceAlpha" type="matrix" values="0 0 0 0 0 0 0 0 0 0 0 0 0 0 0 0 0 0 127 0"/>
<feOffset dx="1" dy="4"/>
<feGaussianBlur stdDeviation="2"/>
<feColorMatrix type="matrix" values="0 0 0 0 0 0 0 0 0 0 0 0 0 0 0 0 0 0 0.25 0"/>
<feBlend mode="normal" in2="BackgroundImageFix" result="effect1_dropShadow"/>
<feBlend mode="normal" in="SourceGraphic" in2="effect1_dropShadow" result="shape"/>
</filter>
</defs>
</svg>
