<svg fill="currentColor" viewBox="0 0 1771 594">
<g filter="url(#filter0_d)">
<rect x="3" width="1763" height="586" rx="293" />
</g>
<path d="M1027.16 201.398V321.28C1027.08 333.1 1024.47 343.391 1019.32 352.155C1014.17 360.919 1006.9 367.673 997.49 372.417C988.163 377.08 977.429 379.412 965.288 379.412C946.795 379.412 931.961 374.387 920.785 364.336C909.689 354.206 903.94 340.215 903.538 322.366V201.398H918.252V320.195C918.252 334.989 922.473 346.487 930.916 354.688C939.358 362.809 950.815 366.869 965.288 366.869C979.761 366.869 991.178 362.769 999.54 354.567C1007.98 346.366 1012.2 334.949 1012.2 320.315V201.398H1027.16ZM1143.3 343.833C1143.3 336.678 1140.41 330.929 1134.62 326.587C1128.91 322.245 1120.27 318.868 1108.69 316.456C1097.11 313.964 1088.1 311.149 1081.67 308.014C1075.32 304.798 1070.58 300.898 1067.44 296.315C1064.39 291.732 1062.86 286.184 1062.86 279.671C1062.86 269.38 1067.16 260.897 1075.76 254.224C1084.37 247.47 1095.38 244.093 1108.81 244.093C1123.36 244.093 1135.02 247.711 1143.78 254.947C1152.63 262.103 1157.05 271.47 1157.05 283.048H1142.58C1142.58 275.41 1139.36 269.058 1132.93 263.993C1126.58 258.927 1118.54 256.395 1108.81 256.395C1099.32 256.395 1091.68 258.525 1085.89 262.787C1080.18 266.968 1077.33 272.435 1077.33 279.189C1077.33 285.702 1079.7 290.767 1084.45 294.385C1089.27 297.923 1097.99 301.179 1110.62 304.154C1123.32 307.129 1132.81 310.305 1139.08 313.682C1145.43 317.059 1150.14 321.119 1153.19 325.863C1156.25 330.607 1157.77 336.356 1157.77 343.11C1157.77 354.125 1153.31 362.929 1144.39 369.522C1135.54 376.116 1123.96 379.412 1109.65 379.412C1094.46 379.412 1082.11 375.754 1072.63 368.437C1063.22 361.04 1058.52 351.713 1058.52 340.457H1072.99C1073.55 348.899 1077.09 355.492 1083.6 360.236C1090.2 364.899 1098.88 367.231 1109.65 367.231C1119.7 367.231 1127.82 365.02 1134.02 360.598C1140.21 356.175 1143.3 350.587 1143.3 343.833ZM1240.87 379.412C1229.78 379.412 1219.73 376.678 1210.72 371.211C1201.8 365.743 1194.84 358.145 1189.86 348.417C1184.87 338.607 1182.38 327.632 1182.38 315.491V310.305C1182.38 297.762 1184.79 286.465 1189.61 276.415C1194.52 266.365 1201.31 258.485 1210 252.776C1218.68 246.987 1228.09 244.093 1238.22 244.093C1254.06 244.093 1266.6 249.52 1275.85 260.375C1285.17 271.149 1289.84 285.903 1289.84 304.637V312.717H1196.73V315.491C1196.73 330.285 1200.95 342.627 1209.39 352.517C1217.92 362.326 1228.61 367.231 1241.47 367.231C1249.19 367.231 1255.99 365.824 1261.86 363.01C1267.81 360.196 1273.19 355.693 1278.02 349.502L1287.06 356.376C1276.45 371.734 1261.05 379.412 1240.87 379.412ZM1238.22 256.395C1227.36 256.395 1218.2 260.375 1210.72 268.334C1203.32 276.294 1198.82 286.988 1197.21 300.416H1275.49V298.848C1275.08 286.305 1271.51 276.093 1264.75 268.214C1258 260.334 1249.15 256.395 1238.22 256.395ZM1378.24 258.807C1375.19 258.244 1371.93 257.962 1368.47 257.962C1359.47 257.962 1351.83 260.495 1345.56 265.561C1339.37 270.546 1334.94 277.822 1332.29 287.39V377H1317.94V246.505H1332.05L1332.29 267.249C1339.93 251.812 1352.19 244.093 1369.08 244.093C1373.1 244.093 1376.27 244.615 1378.6 245.661L1378.24 258.807Z" fill="#204F6E"/>
<path d="M601.335 285.68C627.806 285.68 650.728 276.186 669.456 257.455C688.185 238.726 697.679 215.811 697.679 189.337C697.679 162.873 688.185 139.954 669.453 121.219C650.722 102.494 627.803 93 601.335 93C574.862 93 551.946 102.494 533.218 121.222C514.489 139.951 504.992 162.869 504.992 189.337C504.992 215.811 514.489 238.729 533.221 257.458C551.952 276.183 574.871 285.68 601.335 285.68Z" fill="#204F6E"/>
<path d="M769.911 400.578C769.371 392.784 768.278 384.282 766.67 375.304C765.046 366.258 762.956 357.707 760.453 349.892C757.869 341.814 754.353 333.837 750.007 326.192C745.497 318.258 740.199 311.349 734.254 305.663C728.038 299.715 720.427 294.933 711.626 291.445C702.855 287.975 693.135 286.218 682.738 286.218C678.655 286.218 674.706 287.893 667.079 292.858C662.386 295.919 656.896 299.459 650.768 303.374C645.528 306.713 638.43 309.841 629.662 312.673C621.108 315.441 612.423 316.845 603.851 316.845C595.278 316.845 586.596 315.441 578.033 312.673C569.274 309.844 562.176 306.716 556.942 303.377C550.872 299.499 545.379 295.959 540.616 292.855C532.998 287.89 529.046 286.214 524.963 286.214C514.563 286.214 504.846 287.975 496.079 291.448C487.283 294.93 479.669 299.712 473.447 305.666C467.505 311.355 462.204 318.261 457.7 326.192C453.357 333.837 449.842 341.811 447.254 349.895C444.754 357.711 442.664 366.258 441.04 375.304C439.432 384.27 438.34 392.775 437.8 400.587C437.269 408.241 437 416.185 437 424.208C437 445.088 443.638 461.991 456.726 474.458C469.654 486.759 486.759 493 507.559 493H700.16C720.961 493 738.06 486.762 750.99 474.458C764.082 462 770.719 445.094 770.719 424.205C770.716 416.145 770.445 408.195 769.911 400.578Z" fill="#204F6E"/>
<defs>
<filter id="filter0_d" x="0" y="0" width="1771" height="594" filterUnits="userSpaceOnUse" color-interpolation-filters="sRGB">
<feFlood flood-opacity="0" result="BackgroundImageFix"/>
<feColorMatrix in="SourceAlpha" type="matrix" values="0 0 0 0 0 0 0 0 0 0 0 0 0 0 0 0 0 0 127 0"/>
<feOffset dx="1" dy="4"/>
<feGaussianBlur stdDeviation="2"/>
<feColorMatrix type="matrix" values="0 0 0 0 0 0 0 0 0 0 0 0 0 0 0 0 0 0 0.25 0"/>
<feBlend mode="normal" in2="BackgroundImageFix" result="effect1_dropShadow"/>
<feBlend mode="normal" in="SourceGraphic" in2="effect1_dropShadow" result="shape"/>
</filter>
</defs>
</svg>
