<svg fill="currentColor" viewBox="0 0 334 400">
<path d="M164.336 192.68C190.807 192.68 213.729 183.186 232.457 164.455C251.186 145.726 260.68 122.811 260.68 96.3372C260.68 69.8725 251.186 46.954 232.454 28.2194C213.723 9.49395 190.804 0 164.336 0C137.863 0 114.947 9.49395 96.2187 28.2224C77.4902 46.9509 67.9932 69.8695 67.9932 96.3372C67.9932 122.811 77.4902 145.729 96.2217 164.458C114.953 183.183 137.872 192.68 164.336 192.68Z"/>
<path d="M332.911 307.578C332.371 299.784 331.278 291.282 329.67 282.304C328.046 273.258 325.956 264.707 323.453 256.892C320.869 248.814 317.353 240.837 313.007 233.192C308.497 225.258 303.199 218.349 297.254 212.663C291.038 206.715 283.427 201.933 274.626 198.445C265.855 194.975 256.135 193.218 245.738 193.218C241.655 193.218 237.706 194.893 230.079 199.858C225.386 202.919 219.896 206.459 213.768 210.374C208.528 213.713 201.43 216.841 192.662 219.673C184.108 222.441 175.423 223.845 166.851 223.845C158.278 223.845 149.596 222.441 141.033 219.673C132.274 216.844 125.176 213.716 119.942 210.377C113.872 206.499 108.379 202.959 103.616 199.855C95.9984 194.89 92.0464 193.214 87.9632 193.214C77.5629 193.214 67.8462 194.975 59.0785 198.448C50.2834 201.93 42.6694 206.712 36.4469 212.666C30.5051 218.355 25.2043 225.261 20.6999 233.192C16.3573 240.837 12.8417 248.811 10.2538 256.895C7.75446 264.711 5.66402 273.258 4.0405 282.304C2.43223 291.27 1.33971 299.775 0.799555 307.587C0.268553 315.241 0 323.185 0 331.208C0 352.088 6.63752 368.991 19.7264 381.458C32.6536 393.759 49.7585 400 70.5592 400H263.16C283.961 400 301.06 393.762 313.99 381.458C327.082 369 333.719 352.094 333.719 331.205C333.716 323.145 333.445 315.195 332.911 307.578Z"/>
</svg>
