<svg width="37" height="51" viewBox="0 0 37 51" fill="none" xmlns="http://www.w3.org/2000/svg">
<path d="M13.3685 0.884545C12.4894 0.120919 10.4021 -1.10651 10.0604 2.07253C8.83363 10.2946 0 16.0408 0 24.1473C0 30.9806 5.53955 36.5202 12.373 36.5202C19.2063 36.5202 24.7459 30.9806 24.7459 24.1473C24.7457 17.9473 22.2573 8.60628 13.3685 0.884545ZM7.53365 30.7097C7.34202 30.9661 7.04867 31.1018 6.75189 31.1018C6.551 31.1018 6.34845 31.0398 6.17432 30.911C6.0655 30.8303 3.50131 28.8946 2.9486 25.2357C2.39602 21.5776 4.8732 18.1495 4.97898 18.0053C5.29731 17.5712 5.9076 17.4769 6.34211 17.7958C6.77586 18.1141 6.86997 18.7234 6.55252 19.1578C6.52043 19.202 4.44732 22.0994 4.87726 24.9445C5.30568 27.7814 7.31817 29.3307 7.33847 29.3461C7.76689 29.6697 7.85516 30.2799 7.53365 30.7097Z" fill="#31CDD7"/>
<path d="M7.33831 29.346C7.31802 29.3307 5.30553 27.7814 4.87711 24.9445C4.44716 22.0994 6.52028 19.202 6.55236 19.1578C6.86981 18.7234 6.77571 18.1141 6.34196 17.7958C5.90745 17.4771 5.29716 17.5712 4.97882 18.0053C4.87305 18.1495 2.39586 21.5776 2.94845 25.2357C3.50103 28.8945 6.06522 30.8303 6.17417 30.911C6.3483 31.0398 6.55084 31.1018 6.75174 31.1018C7.04851 31.1018 7.34186 30.9663 7.5335 30.7097C7.85488 30.2799 7.76661 29.6697 7.33831 29.346Z" fill="#F7F1E6"/>
<path d="M30.4789 30.6634C29.9772 30.2275 28.786 29.527 28.5911 31.3414C27.891 36.0335 22.8496 39.3127 22.8496 43.9389C22.8496 47.8386 26.011 51 29.9108 51C33.8104 51 36.9715 47.8386 36.9715 43.9389C36.9715 40.4008 35.5515 35.07 30.4789 30.6634ZM27.149 47.684C27.0397 47.8303 26.8724 47.9078 26.7029 47.9078C26.5883 47.9078 26.4727 47.8724 26.3732 47.7989C26.3111 47.7528 24.8478 46.648 24.5325 44.5601C24.2172 42.4725 25.6308 40.5161 25.691 40.4339C25.8728 40.1861 26.2212 40.1324 26.469 40.3143C26.7166 40.496 26.7703 40.8437 26.5892 41.0915C26.5707 41.1168 25.3877 42.7703 25.6331 44.3939C25.8777 46.0129 27.0259 46.8971 27.0377 46.9059C27.2821 47.0904 27.3324 47.4387 27.149 47.684Z" fill="#31CDD7"/>
<path d="M27.0383 46.9058C27.0265 46.897 25.8784 46.0128 25.6337 44.3938C25.3883 42.7703 26.5713 41.1168 26.5899 41.0914C26.771 40.8436 26.7172 40.4958 26.4696 40.3142C26.2218 40.1323 25.8734 40.186 25.6917 40.4338C25.6314 40.516 24.2178 42.4724 24.5331 44.56C24.8483 46.6479 26.3116 47.7527 26.3739 47.7988C26.4732 47.8723 26.5888 47.9077 26.7035 47.9077C26.8731 47.9077 27.0402 47.8304 27.1497 47.6839C27.3329 47.4387 27.2826 47.0904 27.0383 46.9058Z" fill="#F7F1E6"/>
</svg>
